<?xml version="1.0" standalone="no"?>
<!DOCTYPE svg PUBLIC "-//W3C//DTD SVG 20010904//EN"
 "http://www.w3.org/TR/2001/REC-SVG-20010904/DTD/svg10.dtd">
<svg version="1.0" xmlns="http://www.w3.org/2000/svg"
 width="800.000000pt" height="800.000000pt" viewBox="0 0 800.000000 800.000000"
 preserveAspectRatio="xMidYMid meet">
<metadata>
Created by potrace 1.11, written by Peter Selinger 2001-2013
</metadata>
<g transform="translate(0.000000,800.000000) scale(0.100000,-0.100000)"
fill="#000000" stroke="none">
<path d="M4592 7223 l3 -778 63 -3 62 -3 0 -1509 0 -1510 105 0 105 0 0 1508
0 1508 313 17 c392 22 357 23 357 -11 0 -25 -5 -30 -42 -41 -128 -38 -235
-131 -293 -253 -79 -169 -88 -322 -82 -1328 4 -622 8 -815 21 -930 32 -299 47
-352 104 -372 53 -19 890 -18 1017 0 104 15 242 59 329 104 87 46 226 189 296
305 52 86 57 92 88 93 l34 0 -7 -42 c-10 -58 -88 -309 -136 -437 -21 -58 -39
-108 -39 -113 0 -4 250 -8 555 -8 l555 0 0 2290 0 2290 -1705 0 -1705 0 2
-777z"/>
<path d="M4090 6446 c0 -18 9 -27 44 -40 66 -25 169 -108 215 -172 50 -70 76
-138 99 -257 15 -83 17 -183 17 -1072 0 -747 -3 -1001 -13 -1070 -25 -172 -68
-293 -134 -377 l-30 -38 146 0 146 0 0 1510 c0 1201 -3 1510 -12 1510 -7 0
-112 7 -233 15 -121 8 -226 15 -232 15 -7 0 -13 -11 -13 -24z"/>
<path d="M2342 5803 c3 -23 12 -29 71 -49 166 -56 250 -144 293 -309 16 -65
18 -142 21 -1047 l4 -978 119 0 120 0 0 1190 0 1190 -77 0 c-43 0 -177 7 -298
15 -282 19 -257 20 -253 -12z"/>
<path d="M3660 5820 c-47 -4 -169 -11 -272 -15 l-188 -8 0 -1189 0 -1188 120
0 120 0 0 958 c0 900 1 962 19 1049 20 94 65 194 104 231 43 41 140 91 208
109 60 15 69 20 69 40 0 26 -14 27 -180 13z"/>
<path d="M0 1712 l0 -1712 2297 0 2296 0 -6 682 c-4 376 -7 1114 -7 1642 l0
959 -122 -8 c-68 -3 -177 -13 -243 -21 -66 -7 -123 -14 -127 -14 -5 0 -8 12
-8 28 0 23 9 32 65 61 35 19 77 45 92 57 l28 23 -410 1 -410 0 7 -160 c3 -89
9 -184 13 -213 16 -128 57 -239 124 -337 l39 -57 -104 -11 c-120 -13 -209 -41
-272 -84 -24 -17 -87 -74 -139 -127 -86 -87 -94 -92 -78 -56 114 258 138 391
152 828 l6 217 -110 0 -110 0 -6 -197 c-10 -315 -45 -553 -118 -778 -152 -477
-586 -853 -1113 -965 -49 -11 -93 -17 -98 -14 -4 3 -8 15 -8 27 0 19 23 35
124 90 377 205 657 483 807 802 103 220 148 455 165 863 l7 172 -660 0 c-363
0 -978 3 -1366 7 l-707 6 0 -1711z"/>
<path d="M4590 3345 l0 -65 60 0 60 0 0 65 0 65 -60 0 -60 0 0 -65z"/>
<path d="M4932 3348 l3 -63 865 -6 c555 -4 890 -10 935 -17 95 -15 105 -15
105 6 0 9 9 45 19 80 l19 62 -974 0 -975 0 3 -62z"/>
</g>
</svg>
